<svg width="160" height="62" viewBox="0 0 160 62" fill="none" xmlns="http://www.w3.org/2000/svg">
<path d="M43.6884 13.8375C43.6884 13.9858 43.639 14.1155 43.5401 14.2268C43.4413 14.338 43.3177 14.4245 43.1694 14.4863C42.9593 14.5728 42.5948 14.684 42.0757 14.8199C41.5567 14.9559 40.9265 15.1103 40.185 15.2833C39.4559 15.4564 38.6712 15.6355 37.8309 15.8209C36.9905 15.9939 36.1502 16.1607 35.3099 16.3214C34.9886 17.5077 34.6611 18.7312 34.3274 19.9916C33.9938 21.2398 33.6601 22.4694 33.3265 23.6804C33.2029 24.1129 33.0546 24.4404 32.8816 24.6629C32.7086 24.8977 32.412 25.0151 31.9918 25.0151C31.5346 25.0151 31.2257 24.8668 31.065 24.5702C30.9167 24.2859 30.8982 23.8967 31.0094 23.4024C31.3307 22.0554 31.6273 20.8011 31.8992 19.6394C32.1834 18.4778 32.412 17.5386 32.585 16.8219C31.8435 16.9455 31.1948 17.0443 30.6387 17.1185C30.0826 17.1803 29.6871 17.205 29.4523 17.1926C29.1928 17.1679 28.9766 17.0629 28.8035 16.8775C28.6305 16.6921 28.5502 16.4635 28.5626 16.1916C28.5873 15.9445 28.6985 15.7344 28.8962 15.5614C29.0939 15.376 29.3287 15.2648 29.6006 15.2277C29.9837 15.1907 30.478 15.1351 31.0835 15.0609C31.6891 14.9868 32.3564 14.9003 33.0855 14.8014C33.2461 14.1712 33.4315 13.5224 33.6416 12.8551C33.8517 12.1754 34.0679 11.5266 34.2904 10.9087C34.5252 10.2785 34.7476 9.72855 34.9577 9.25896C35.1678 8.78936 35.3593 8.44952 35.5323 8.23944C35.6683 8.07879 35.8351 7.95522 36.0328 7.86871C36.2429 7.78221 36.4468 7.73896 36.6445 7.73896C36.904 7.73896 37.1141 7.83164 37.2748 8.017C37.4354 8.20237 37.5157 8.41863 37.5157 8.66578C37.5157 8.76465 37.5096 8.86969 37.4972 8.98091C37.4848 9.07977 37.4601 9.17863 37.4231 9.27749C37.1883 9.89538 36.9349 10.643 36.6631 11.5204C36.4035 12.3978 36.1317 13.3617 35.8474 14.4121C36.7743 14.2762 37.6826 14.1403 38.5723 14.0043C39.4744 13.856 40.29 13.7201 41.0192 13.5965C41.7606 13.4606 42.3538 13.3432 42.7987 13.2443C43.0458 13.1578 43.2559 13.1764 43.4289 13.2999C43.6019 13.4112 43.6884 13.5903 43.6884 13.8375ZM44.0948 23.8102C43.3286 23.8102 42.7107 23.5445 42.2411 23.0131C41.7715 22.4694 41.5367 21.5981 41.5367 20.3994C41.5367 19.6333 41.6232 18.8671 41.7962 18.1009C41.9816 17.3224 42.2349 16.5871 42.5562 15.8951C42.8899 15.1907 43.273 14.5666 43.7055 14.0229C44.1504 13.4791 44.6385 13.0528 45.1699 12.7438C45.7013 12.4225 46.2512 12.2619 46.8197 12.2619C47.7836 12.2619 48.5374 12.5214 49.0811 13.0404C49.6249 13.5594 49.8967 14.2206 49.8967 15.0238C49.8967 15.6417 49.7237 16.204 49.3777 16.7107C49.044 17.205 48.5868 17.6499 48.006 18.0453C47.4252 18.4407 46.7764 18.7991 46.0597 19.1204C45.3429 19.4417 44.6076 19.7321 43.8538 19.9916C43.792 20.4365 43.7611 20.832 43.7611 21.178C43.7611 21.3881 43.8785 21.4931 44.1133 21.4931C44.6694 21.4931 45.2626 21.4066 45.8928 21.2336C46.5354 21.0482 47.1842 20.8134 47.8392 20.5292C48.4941 20.2326 49.1244 19.9299 49.7299 19.6209C50.3354 19.2996 50.8853 18.9968 51.3797 18.7126C51.8863 18.416 52.3003 18.1812 52.6216 18.0082C52.9553 17.8229 53.1715 17.7302 53.2704 17.7302C53.5423 17.7302 53.74 17.8105 53.8636 17.9712C53.9871 18.1318 54.0489 18.3048 54.0489 18.4902C54.0489 18.5767 53.8821 18.7682 53.5484 19.0648C53.2271 19.3614 52.7823 19.7136 52.2138 20.1214C51.6577 20.5168 51.0275 20.9308 50.3231 21.3633C49.631 21.7835 48.9081 22.1851 48.1543 22.5682C47.4128 22.939 46.6899 23.2355 45.9855 23.458C45.2935 23.6928 44.6632 23.8102 44.0948 23.8102ZM44.1689 18.3419C44.6756 18.0453 45.1761 17.7364 45.6704 17.4151C46.1771 17.0814 46.5972 16.7107 46.9309 16.3029C47.2645 15.8827 47.4314 15.3946 47.4314 14.8385C47.4314 14.6778 47.3881 14.5728 47.3016 14.5233C47.2151 14.4616 47.0915 14.4307 46.9309 14.4307C46.4984 14.4307 46.1029 14.6222 45.7445 15.0053C45.3985 15.3884 45.0896 15.8827 44.8177 16.4882C44.5582 17.0814 44.3419 17.6993 44.1689 18.3419ZM69.3089 22.7536C69.2347 23.4209 68.8393 23.7546 68.1225 23.7546C67.7518 23.7546 67.4552 23.6433 67.2328 23.4209C67.0227 23.1985 66.9177 22.8772 66.9177 22.457C66.9177 21.7403 66.9486 20.9741 67.0103 20.1585C67.0845 19.3305 67.171 18.4964 67.2699 17.656C67.3811 16.8157 67.4861 16.0125 67.585 15.2463C67.1401 15.8889 66.6705 16.55 66.1762 17.2297C65.6819 17.9094 65.1876 18.5705 64.6933 19.2131C64.199 19.8557 63.7232 20.4365 63.266 20.9555C62.8211 21.4622 62.4133 21.87 62.0425 22.179C61.6718 22.4755 61.3629 22.6238 61.1157 22.6238C60.5225 22.6238 60.0097 22.4076 59.5772 21.9751C59.1447 21.5302 58.9284 20.9679 58.9284 20.2882C58.9284 20.0534 58.9531 19.7383 59.0025 19.3429C59.052 18.9351 59.1138 18.5025 59.1879 18.0453C59.262 17.5881 59.3238 17.1555 59.3733 16.7477C59.4227 16.3399 59.4474 16.0186 59.4474 15.7838C59.4474 15.7838 59.4474 15.7715 59.4474 15.7468C59.4598 15.685 59.4474 15.6541 59.4103 15.6541C59.3609 15.6541 59.225 15.8209 59.0025 16.1546C58.7801 16.4759 58.5082 16.896 58.1869 17.4151C57.8656 17.9341 57.5258 18.4778 57.1674 19.0463C56.8214 19.6147 56.4939 20.1461 56.185 20.6404C55.8884 21.1347 55.6412 21.5178 55.4435 21.7897C55.1716 22.2099 54.9183 22.4755 54.6835 22.5868C54.4487 22.698 54.1768 22.7536 53.8679 22.7536C53.4354 22.7536 53.0955 22.6115 52.8484 22.3272C52.6136 22.0307 52.4962 21.6167 52.4962 21.0853C52.4962 20.8629 52.5333 20.5168 52.6074 20.0472C52.6939 19.5777 52.799 19.0586 52.9225 18.4902C53.0461 17.9094 53.1697 17.3471 53.2933 16.8033C53.4292 16.2472 53.5466 15.7777 53.6455 15.3946C53.7567 14.8879 53.9112 14.5357 54.1089 14.338C54.319 14.1279 54.5847 14.0229 54.906 14.0229C55.6598 14.0229 56.0367 14.3936 56.0367 15.1351C56.0367 15.271 55.9934 15.4934 55.9069 15.8024C55.8204 16.1113 55.7154 16.4697 55.5918 16.8775C55.4682 17.2853 55.3385 17.7055 55.2025 18.138C55.0666 18.5581 54.9554 18.9536 54.8689 19.3243C55.1655 18.8053 55.4868 18.2492 55.8328 17.656C56.1788 17.0629 56.531 16.482 56.8894 15.9136C57.2601 15.3451 57.6247 14.8261 57.983 14.3565C58.3538 13.8869 58.7183 13.5162 59.0767 13.2443C59.4351 12.9601 59.7749 12.818 60.0962 12.818C60.4175 12.818 60.7326 12.9354 61.0416 13.1702C61.3505 13.3926 61.6038 13.683 61.8016 14.0414C62.0116 14.3874 62.1167 14.7581 62.1167 15.1536C62.1167 15.5243 62.0673 15.9692 61.9684 16.4882C61.8695 17.0072 61.7583 17.551 61.6347 18.1194C61.5112 18.6879 61.4247 19.244 61.3752 19.7877C61.7954 19.3181 62.2403 18.7868 62.7099 18.1936C63.1794 17.5881 63.6614 16.964 64.1557 16.3214C64.65 15.6788 65.132 15.0547 65.6016 14.4492C66.0835 13.8437 66.5284 13.2938 66.9362 12.7994C67.3564 12.3051 67.7271 11.9159 68.0484 11.6316C68.3697 11.3351 68.6168 11.1868 68.7899 11.1868C69.2965 11.1868 69.692 11.3227 69.9762 11.5946C70.2728 11.8541 70.4211 12.3113 70.4211 12.9663C70.4211 13.3741 70.3902 13.9055 70.3284 14.5604C70.279 15.2154 70.2048 15.9259 70.106 16.6921C70.0194 17.4459 69.9206 18.2121 69.8094 18.9907C69.7105 19.7568 69.6178 20.4674 69.5313 21.1224C69.4448 21.7773 69.3707 22.3211 69.3089 22.7536ZM73.2146 29.1302C72.8686 29.1302 72.5967 29.0066 72.399 28.7594C72.2136 28.5246 72.1209 28.1601 72.1209 27.6658C72.1209 26.9861 72.1827 26.1767 72.3063 25.2375C72.4299 24.2983 72.5967 23.3035 72.8068 22.2531C73.0169 21.2027 73.2455 20.1708 73.4926 19.1575C73.7892 17.9959 74.0796 16.9393 74.3639 15.9877C74.6604 15.0362 74.957 14.2762 75.2536 13.7077C75.5626 13.1269 75.8715 12.8365 76.1804 12.8365C76.4647 12.8365 76.7118 12.9416 76.9219 13.1516C77.1443 13.3494 77.2556 13.6459 77.2556 14.0414C77.2556 14.3256 77.1814 14.7334 77.0331 15.2648C76.8848 15.7838 76.6995 16.4326 76.477 17.2112C76.8972 16.5191 77.3297 15.8394 77.7746 15.1721C78.2318 14.5048 78.6952 13.8993 79.1648 13.3555C79.6344 12.8118 80.0917 12.3793 80.5365 12.058C80.9814 11.7367 81.4016 11.576 81.797 11.576C82.2666 11.576 82.6806 11.712 83.039 11.9838C83.4097 12.2557 83.7001 12.6264 83.9102 13.096C84.1203 13.5656 84.2253 14.097 84.2253 14.6902C84.2253 15.79 84.0276 16.859 83.6322 17.897C83.2367 18.9227 82.6868 19.8433 81.9824 20.659C81.2904 21.4746 80.4809 22.1233 79.5541 22.6053C78.6273 23.0749 77.6263 23.3097 76.5512 23.3097C76.2422 23.3097 75.958 23.2788 75.6985 23.217C75.4513 23.1676 75.2227 23.1058 75.0126 23.0316C74.8643 23.8225 74.7222 24.632 74.5863 25.4599C74.4627 26.3003 74.333 27.1838 74.197 28.1107C74.0487 28.7903 73.7213 29.1302 73.2146 29.1302ZM81.9824 13.7633C81.7105 13.7633 81.3645 13.9487 80.9443 14.3194C80.5365 14.6902 80.0917 15.1783 79.6097 15.7838C79.1278 16.377 78.6396 17.0258 78.1453 17.7302C77.6634 18.4222 77.2 19.1019 76.7551 19.7692C76.3226 20.4365 75.9518 21.0173 75.6429 21.5116C76.5821 21.4128 77.41 21.1656 78.1268 20.7702C78.8435 20.3624 79.4552 19.8681 79.9619 19.2872C80.4686 18.7064 80.8764 18.0947 81.1853 17.4521C81.5066 16.7972 81.7414 16.1607 81.8897 15.5429C82.038 14.925 82.1122 14.3874 82.1122 13.9302C82.1122 13.819 82.0689 13.7633 81.9824 13.7633ZM90.0994 24.1068C88.9872 24.1068 88.1098 23.7669 87.4672 23.0872C86.837 22.3952 86.5218 21.4128 86.5218 20.1399C86.5218 19.4479 86.6145 18.6385 86.7999 17.7116C86.9853 16.7725 87.2262 15.7838 87.5228 14.7458C87.8318 13.6954 88.1592 12.6573 88.5053 11.6316C88.8636 10.6059 89.2158 9.6544 89.5618 8.77701C89.9079 7.89961 90.2106 7.16432 90.4701 6.57115C90.6926 6.11392 91.0077 5.8853 91.4155 5.8853C91.675 5.8853 91.8851 5.96562 92.0457 6.12627C92.2187 6.28692 92.3053 6.54644 92.3053 6.90481C92.3053 7.07782 92.2187 7.45473 92.0457 8.03554C91.8727 8.61635 91.6441 9.3331 91.3599 10.1858C91.088 11.0261 90.7914 11.9344 90.4701 12.9107C90.1612 13.8869 89.8646 14.8694 89.5804 15.858C89.3085 16.8466 89.0861 17.7796 88.9131 18.657C88.74 19.522 88.6535 20.2573 88.6535 20.8629C88.6535 21.11 88.7215 21.3077 88.8574 21.456C89.0057 21.6043 89.1973 21.6785 89.4321 21.6785C89.9387 21.6785 90.4578 21.5858 90.9892 21.4004C91.5329 21.2151 92.0643 20.9803 92.5833 20.696C93.1147 20.4118 93.6152 20.109 94.0848 19.7877C94.5544 19.4664 94.9745 19.1637 95.3453 18.8794C95.7283 18.5829 96.0373 18.3481 96.2721 18.1751C96.581 17.9403 96.7911 17.8229 96.9023 17.8229C97.3225 17.8229 97.5326 18.0268 97.5326 18.4346C97.5326 18.5334 97.409 18.7373 97.1618 19.0463C96.9518 19.3181 96.6552 19.6642 96.2721 20.0843C95.889 20.5045 95.4441 20.9494 94.9374 21.419C94.4431 21.8762 93.9118 22.3087 93.3433 22.7165C92.7872 23.1243 92.2311 23.458 91.675 23.7175C91.1189 23.977 90.5937 24.1068 90.0994 24.1068ZM97.3187 23.8843C96.9232 23.8843 96.5648 23.7731 96.2435 23.5507C95.9222 23.3406 95.6689 23.0625 95.4835 22.7165C95.2982 22.3581 95.2055 21.9751 95.2055 21.5672C95.2055 20.8011 95.3723 20.0534 95.706 19.3243C96.052 18.5952 96.5031 17.9032 97.0592 17.2482C97.6152 16.5933 98.2208 15.9939 98.8757 15.4502C99.5431 14.8941 100.204 14.4183 100.859 14.0229C101.526 13.6274 102.132 13.3185 102.676 13.096C103.232 12.8736 103.664 12.7624 103.973 12.7624C104.332 12.7624 104.622 12.8427 104.845 13.0033C105.079 13.1516 105.197 13.3864 105.197 13.7077C105.197 13.8066 105.172 13.8869 105.123 13.9487C105.283 13.9858 105.413 14.0785 105.512 14.2268C105.611 14.3751 105.66 14.5975 105.66 14.8941C105.66 15.0177 105.629 15.339 105.567 15.858C105.506 16.377 105.438 17.0072 105.364 17.7487C105.302 18.4902 105.271 19.2625 105.271 20.0658C105.271 20.1894 105.289 20.3006 105.326 20.3994C105.364 20.4859 105.444 20.5292 105.567 20.5292C106.062 20.5292 106.562 20.4303 107.069 20.2326C107.588 20.0225 108.088 19.7692 108.57 19.4726C109.065 19.1637 109.51 18.8609 109.905 18.5643C110.313 18.2554 110.653 18.002 110.925 17.8043C111.209 17.5942 111.394 17.4892 111.481 17.4892C111.901 17.4892 112.111 17.6993 112.111 18.1194C112.111 18.2307 111.975 18.4655 111.703 18.8238C111.444 19.1699 111.085 19.5715 110.628 20.0287C110.171 20.4736 109.658 20.9185 109.089 21.3633C108.533 21.7959 107.952 22.1542 107.347 22.4385C106.754 22.7227 106.179 22.8648 105.623 22.8648C104.943 22.8648 104.424 22.7042 104.066 22.3829C103.72 22.0616 103.473 21.629 103.325 21.0853C103.189 20.5292 103.114 19.9051 103.102 19.2131C102.472 20.1152 101.817 20.9185 101.137 21.6229C100.47 22.3149 99.8087 22.8648 99.1538 23.2726C98.4988 23.6804 97.8871 23.8843 97.3187 23.8843ZM103.881 14.5975C102.67 15.1783 101.582 15.8456 100.618 16.5994C99.6543 17.3409 98.8881 18.1194 98.3196 18.9351C97.7635 19.7507 97.4855 20.5354 97.4855 21.2892C97.4855 21.4993 97.5844 21.6043 97.7821 21.6043C98.0169 21.6043 98.3258 21.4684 98.7089 21.1965C99.1044 20.9246 99.5307 20.5663 99.9879 20.1214C100.445 19.6642 100.902 19.1575 101.36 18.6014C101.817 18.0329 102.243 17.4521 102.639 16.859C103.034 16.2658 103.349 15.6973 103.584 15.1536C103.671 14.9559 103.769 14.7705 103.881 14.5975ZM123.899 13.8375C123.899 13.9858 123.85 14.1155 123.751 14.2268C123.652 14.338 123.528 14.4245 123.38 14.4863C123.17 14.5728 122.805 14.684 122.286 14.8199C121.767 14.9559 121.137 15.1103 120.396 15.2833C119.666 15.4564 118.882 15.6355 118.041 15.8209C117.201 15.9939 116.361 16.1607 115.52 16.3214C115.199 17.5077 114.872 18.7312 114.538 19.9916C114.204 21.2398 113.871 22.4694 113.537 23.6804C113.413 24.1129 113.265 24.4404 113.092 24.6629C112.919 24.8977 112.623 25.0151 112.202 25.0151C111.745 25.0151 111.436 24.8668 111.276 24.5702C111.127 24.2859 111.109 23.8967 111.22 23.4024C111.541 22.0554 111.838 20.8011 112.11 19.6394C112.394 18.4778 112.623 17.5386 112.796 16.8219C112.054 16.9455 111.405 17.0443 110.849 17.1185C110.293 17.1803 109.898 17.205 109.663 17.1926C109.403 17.1679 109.187 17.0629 109.014 16.8775C108.841 16.6921 108.761 16.4635 108.773 16.1916C108.798 15.9445 108.909 15.7344 109.107 15.5614C109.305 15.376 109.539 15.2648 109.811 15.2277C110.194 15.1907 110.689 15.1351 111.294 15.0609C111.9 14.9868 112.567 14.9003 113.296 14.8014C113.457 14.1712 113.642 13.5224 113.852 12.8551C114.062 12.1754 114.278 11.5266 114.501 10.9087C114.736 10.2785 114.958 9.72855 115.168 9.25896C115.378 8.78936 115.57 8.44952 115.743 8.23944C115.879 8.07879 116.046 7.95522 116.243 7.86871C116.453 7.78221 116.657 7.73896 116.855 7.73896C117.115 7.73896 117.325 7.83164 117.485 8.017C117.646 8.20237 117.726 8.41863 117.726 8.66578C117.726 8.76465 117.72 8.86969 117.708 8.98091C117.695 9.07977 117.671 9.17863 117.634 9.27749C117.399 9.89538 117.145 10.643 116.874 11.5204C116.614 12.3978 116.342 13.3617 116.058 14.4121C116.985 14.2762 117.893 14.1403 118.783 14.0043C119.685 13.856 120.501 13.7201 121.23 13.5965C121.971 13.4606 122.564 13.3432 123.009 13.2443C123.256 13.1578 123.466 13.1764 123.639 13.2999C123.812 13.4112 123.899 13.5903 123.899 13.8375ZM124.305 23.8102C123.539 23.8102 122.921 23.5445 122.452 23.0131C121.982 22.4694 121.747 21.5981 121.747 20.3994C121.747 19.6333 121.834 18.8671 122.007 18.1009C122.192 17.3224 122.445 16.5871 122.767 15.8951C123.1 15.1907 123.484 14.5666 123.916 14.0229C124.361 13.4791 124.849 13.0528 125.38 12.7438C125.912 12.4225 126.462 12.2619 127.03 12.2619C127.994 12.2619 128.748 12.5214 129.292 13.0404C129.835 13.5594 130.107 14.2206 130.107 15.0238C130.107 15.6417 129.934 16.204 129.588 16.7107C129.255 17.205 128.797 17.6499 128.217 18.0453C127.636 18.4407 126.987 18.7991 126.27 19.1204C125.553 19.4417 124.818 19.7321 124.064 19.9916C124.003 20.4365 123.972 20.832 123.972 21.178C123.972 21.3881 124.089 21.4931 124.324 21.4931C124.88 21.4931 125.473 21.4066 126.103 21.2336C126.746 21.0482 127.395 20.8134 128.05 20.5292C128.705 20.2326 129.335 19.9299 129.94 19.6209C130.546 19.2996 131.096 18.9968 131.59 18.7126C132.097 18.416 132.511 18.1812 132.832 18.0082C133.166 17.8229 133.382 17.7302 133.481 17.7302C133.753 17.7302 133.951 17.8105 134.074 17.9712C134.198 18.1318 134.259 18.3048 134.259 18.4902C134.259 18.5767 134.093 18.7682 133.759 19.0648C133.438 19.3614 132.993 19.7136 132.424 20.1214C131.868 20.5168 131.238 20.9308 130.534 21.3633C129.842 21.7835 129.119 22.1851 128.365 22.5682C127.623 22.939 126.9 23.2355 126.196 23.458C125.504 23.6928 124.874 23.8102 124.305 23.8102ZM124.379 18.3419C124.886 18.0453 125.387 17.7364 125.881 17.4151C126.388 17.0814 126.808 16.7107 127.141 16.3029C127.475 15.8827 127.642 15.3946 127.642 14.8385C127.642 14.6778 127.599 14.5728 127.512 14.5233C127.426 14.4616 127.302 14.4307 127.141 14.4307C126.709 14.4307 126.313 14.6222 125.955 15.0053C125.609 15.3884 125.3 15.8827 125.028 16.4882C124.769 17.0814 124.552 17.6993 124.379 18.3419Z" fill="#9E4242"/>
<path d="M88.9002 53.5763C88.915 53.7542 88.8112 53.8729 88.5888 53.9322C88.3812 54.0063 88.1068 54.0286 87.7658 53.9989C87.4395 53.9841 87.1059 53.9248 86.7648 53.821C86.4237 53.732 86.142 53.6208 85.9195 53.4873C85.6378 53.4132 85.2819 53.1388 84.8518 52.6643C84.4218 52.1898 83.9176 51.6114 83.3392 50.9293C82.7461 51.2555 82.2641 51.5224 81.8934 51.73C81.5226 51.9228 81.1816 52.086 80.8701 52.2194C80.5736 52.338 80.2177 52.4567 79.8024 52.5753C78.8237 52.6643 77.9265 52.5679 77.1109 52.2861C76.9923 52.2417 76.8218 52.1527 76.5993 52.0192C76.3769 51.8858 76.1544 51.7449 75.932 51.5966C75.7244 51.4483 75.5835 51.3371 75.5094 51.2629C75.4352 51.2184 75.3759 51.085 75.3314 50.8625C75.3018 50.6253 75.2795 50.388 75.2647 50.1507C75.2647 49.9135 75.2721 49.7726 75.2869 49.7281C75.3314 49.5946 75.4575 49.3648 75.6651 49.0385C75.8875 48.6975 76.1619 48.3045 76.4881 47.8596C76.8292 47.4147 77.1925 46.9624 77.5781 46.5027C77.9784 46.043 78.3714 45.6204 78.757 45.2348C78.4011 44.7158 78.1564 44.2042 78.0229 43.7C77.8895 43.1958 77.8895 42.6545 78.0229 42.0762C78.1712 41.483 78.453 40.8157 78.8682 40.0742C79.0165 39.837 79.2093 39.5775 79.4465 39.2957C79.6986 39.014 79.9507 38.747 80.2028 38.4949C80.4698 38.228 80.6996 38.0204 80.8924 37.8721C81.0852 37.7238 81.189 37.6645 81.2038 37.6941C81.2631 37.798 81.3224 37.835 81.3818 37.8054C81.4411 37.7757 81.5004 37.7609 81.5597 37.7609C81.619 37.7312 81.7451 37.7238 81.9379 37.7386C82.1455 37.7386 82.3753 37.7535 82.6274 37.7831C82.8795 37.8128 83.102 37.8647 83.2947 37.9388C83.8286 37.9981 84.1993 38.0575 84.4069 38.1168C84.6294 38.1761 84.8296 38.3096 85.0075 38.5172C85.23 38.6803 85.4376 38.8805 85.6303 39.1178C85.8231 39.355 85.9788 39.5923 86.0975 39.8296C86.2309 40.052 86.2977 40.23 86.2977 40.3634C86.2977 40.5562 86.142 40.8528 85.8305 41.2532C85.534 41.6536 85.1336 42.0762 84.6294 42.5211C84.4366 42.7583 84.2364 42.9734 84.0288 43.1661C83.836 43.3441 83.7396 43.4331 83.7396 43.4331C83.7396 43.4924 83.7025 43.574 83.6284 43.6778C83.5542 43.7816 83.4579 43.8557 83.3392 43.9002C83.1761 44.0485 82.9462 44.2561 82.6497 44.523C82.3531 44.79 82.0861 45.0346 81.8489 45.2571C81.6116 45.4795 81.4856 45.613 81.4707 45.6575C81.4559 45.6871 81.5078 45.8058 81.6264 46.0134C81.7451 46.2061 81.9008 46.436 82.0936 46.7029C82.2863 46.9699 82.4791 47.2368 82.6719 47.5037C82.8795 47.7558 83.0649 47.9708 83.228 48.1488C83.3911 48.3119 83.5023 48.3935 83.5617 48.3935C84.051 47.9189 84.5552 47.4592 85.0742 47.0143C85.6081 46.5546 86.1494 46.0727 86.6981 45.5685C87.0688 45.1829 87.3505 44.9308 87.5433 44.8122C87.7361 44.6936 87.8918 44.6639 88.0104 44.7232C88.1291 44.7677 88.2403 44.8419 88.3441 44.9457C88.5369 44.9753 88.6407 45.1088 88.6555 45.346C88.6703 45.5685 88.6481 45.7909 88.5888 46.0134C88.5295 46.221 88.4924 46.3322 88.4776 46.347C88.2848 46.5991 88.0253 46.8809 87.699 47.1923C87.3728 47.5037 87.0317 47.8225 86.6758 48.1488C86.3199 48.4602 85.9788 48.7642 85.6526 49.0608C85.3263 49.3574 85.052 49.6169 84.8296 49.8393C84.8296 49.8393 84.9185 49.9505 85.0965 50.173C85.2893 50.3806 85.4746 50.566 85.6526 50.7291C86.142 51.2333 86.5201 51.5892 86.787 51.7968C87.054 51.9896 87.358 52.1453 87.699 52.2639C88.1587 52.4122 88.4701 52.5827 88.6333 52.7755C88.7964 52.9831 88.8854 53.25 88.9002 53.5763ZM78.2009 50.6623C78.6458 50.7958 79.0239 50.8477 79.3353 50.818C79.6616 50.7736 80.0101 50.6475 80.3808 50.4399C80.7515 50.2323 81.2186 49.9357 81.7821 49.5501L82.2048 49.2387L81.6487 48.5937C81.5449 48.475 81.4262 48.3119 81.2928 48.1043C81.1593 47.8967 80.9888 47.6668 80.7812 47.4147C80.5587 47.2071 80.4104 47.044 80.3363 46.9254C80.277 46.8067 80.2473 46.7474 80.2473 46.7474C80.2028 46.7474 80.099 46.8216 79.9359 46.9699C79.7876 47.1181 79.6245 47.2961 79.4465 47.5037C79.2834 47.6965 79.1574 47.867 79.0684 48.0153C78.7273 48.2822 78.4678 48.5492 78.2899 48.8161C78.1119 49.0682 77.9117 49.3648 77.6893 49.7059C77.5855 49.9431 77.5484 50.1137 77.5781 50.2175C77.6077 50.3213 77.6819 50.3954 77.8005 50.4399C77.9191 50.4844 78.0526 50.5585 78.2009 50.6623ZM80.2918 43.9892C80.4549 43.8112 80.6848 43.611 80.9814 43.3886C81.2928 43.1513 81.619 42.9066 81.9601 42.6545C82.3012 42.3876 82.62 42.1207 82.9166 41.8538C83.2132 41.572 83.443 41.2977 83.6061 41.0307C83.7693 40.749 83.8138 40.482 83.7396 40.23C83.71 40.1706 83.6284 40.1039 83.4949 40.0298C83.3615 39.9556 83.2058 39.8889 83.0278 39.8296C82.8499 39.7702 82.6719 39.748 82.494 39.7628C82.1974 39.7332 81.923 39.837 81.6709 40.0742C81.4188 40.3115 81.1222 40.6748 80.7812 41.1642C80.4104 41.7129 80.1583 42.2171 80.0249 42.6768C79.9062 43.1217 79.9952 43.5591 80.2918 43.9892Z" fill="black"/>
</svg>
